<svg id="Capa_1" data-name="Capa 1" xmlns="http://www.w3.org/2000/svg" xmlns:xlink="http://www.w3.org/1999/xlink" width="255.23" height="215.43" viewBox="0 0 255.23 215.43"><defs><style>.cls-1{fill:url(#Degradado_sin_nombre);}.cls-2,.cls-20{fill:#333;}.cls-10,.cls-11,.cls-12,.cls-13,.cls-14,.cls-15,.cls-16,.cls-17,.cls-18,.cls-19,.cls-20,.cls-24,.cls-26,.cls-27,.cls-28,.cls-29,.cls-3,.cls-30,.cls-31,.cls-32,.cls-33,.cls-34,.cls-35,.cls-36,.cls-37,.cls-38,.cls-39,.cls-4,.cls-40,.cls-41,.cls-42,.cls-43,.cls-44,.cls-45,.cls-46,.cls-5,.cls-6,.cls-7,.cls-8,.cls-9{stroke:#333;}.cls-3{fill:url(#Degradado_sin_nombre_2);}.cls-4{fill:url(#Degradado_sin_nombre_3);}.cls-5{fill:url(#Degradado_sin_nombre_4);}.cls-6{fill:url(#Degradado_sin_nombre_5);}.cls-7{fill:#676767;}.cls-8{fill:url(#Degradado_sin_nombre_6);}.cls-9{fill:url(#Degradado_sin_nombre_7);}.cls-10{fill:url(#Degradado_sin_nombre_8);}.cls-11{fill:url(#Degradado_sin_nombre_9);}.cls-12{fill:url(#Degradado_sin_nombre_10);}.cls-13{fill:url(#Degradado_sin_nombre_11);}.cls-14{fill:url(#Degradado_sin_nombre_12);}.cls-15{fill:url(#Degradado_sin_nombre_13);}.cls-16{fill:url(#Degradado_sin_nombre_14);}.cls-17{fill:url(#Degradado_sin_nombre_15);}.cls-18{fill:url(#Degradado_sin_nombre_16);}.cls-19{fill:url(#Degradado_sin_nombre_17);}.cls-21{fill:#36a3c9;stroke:#010101;}.cls-22{fill:#50c8ec;}.cls-23{fill:url(#Degradado_sin_nombre_18);}.cls-24{fill:none;}.cls-25{fill:url(#Degradado_sin_nombre_19);}.cls-26{fill:url(#Degradado_sin_nombre_20);}.cls-27{fill:url(#Degradado_sin_nombre_22);}.cls-28{fill:url(#Degradado_sin_nombre_23);}.cls-29{fill:url(#Degradado_sin_nombre_24);}.cls-30{fill:url(#Degradado_sin_nombre_25);}.cls-31{fill:url(#Degradado_sin_nombre_26);}.cls-32{fill:url(#Degradado_sin_nombre_27);}.cls-33{fill:url(#Degradado_sin_nombre_28);}.cls-34{fill:url(#Degradado_sin_nombre_29);}.cls-35{fill:url(#Degradado_sin_nombre_30);}.cls-36{fill:url(#Degradado_sin_nombre_31);}.cls-37{fill:url(#Degradado_sin_nombre_32);}.cls-38{fill:url(#Degradado_sin_nombre_33);}.cls-39{fill:url(#Degradado_sin_nombre_34);}.cls-40{fill:url(#Degradado_sin_nombre_35);}.cls-41{fill:url(#Degradado_sin_nombre_36);}.cls-42{fill:url(#Degradado_sin_nombre_37);}.cls-43{fill:url(#Degradado_sin_nombre_38);}.cls-44{fill:url(#Degradado_sin_nombre_39);}.cls-45{fill:url(#Degradado_sin_nombre_40);}.cls-46{fill:url(#Degradado_sin_nombre_41);}</style><linearGradient id="Degradado_sin_nombre" x1="87.77" y1="148.14" x2="88.41" y2="147.38" gradientTransform="matrix(251.27, 0, 0, -211.47, -22021.61, 31366.85)" gradientUnits="userSpaceOnUse"><stop offset="0" stop-color="#fff"/><stop offset="1" stop-color="#f3f3f3"/></linearGradient><linearGradient id="Degradado_sin_nombre_2" x1="87.04" y1="148.61" x2="87.58" y2="148.11" gradientTransform="matrix(74.1, 0, 0, -79.41, -6321.37, 11907.57)" gradientUnits="userSpaceOnUse"><stop offset="0" stop-color="#fff"/><stop offset="1" stop-color="#cdcccc"/></linearGradient><linearGradient id="Degradado_sin_nombre_3" x1="86.26" y1="148.93" x2="87.41" y2="148.05" gradientTransform="matrix(52.94, 0, 0, -68.78, -4401.47, 10311.09)" gradientUnits="userSpaceOnUse"><stop offset="0" stop-color="#e6e6e5"/><stop offset="1" stop-color="#b4b4b4"/></linearGradient><linearGradient id="Degradado_sin_nombre_4" x1="69.82" y1="149.26" x2="74.05" y2="148.76" gradientTransform="matrix(5.31, 0, 0, -45.02, -157.47, 6817.71)" xlink:href="#Degradado_sin_nombre_3"/><linearGradient id="Degradado_sin_nombre_5" x1="86.64" y1="150.54" x2="87.34" y2="149.13" gradientTransform="matrix(58.25, 0, 0, -29.08, -4869.03, 4432.27)" xlink:href="#Degradado_sin_nombre"/><linearGradient id="Degradado_sin_nombre_6" x1="83.21" y1="151.94" x2="84.18" y2="150.9" gradientTransform="matrix(18.45, 0, 0, -17.2, -1329.47, 2737.16)" xlink:href="#Degradado_sin_nombre_3"/><linearGradient id="Degradado_sin_nombre_7" x1="82.53" y1="155.47" x2="83.32" y2="154.12" gradientTransform="matrix(15.84, 0, 0, -9.27, -1081.49, 1576.66)" xlink:href="#Degradado_sin_nombre_3"/><linearGradient id="Degradado_sin_nombre_8" x1="80" y1="155.08" x2="80.44" y2="154.58" gradientTransform="matrix(10.63, 0, 0, -9.27, -606.58, 1576.66)" xlink:href="#Degradado_sin_nombre_3"/><linearGradient id="Degradado_sin_nombre_9" x1="84.68" y1="153.9" x2="85.68" y2="153.9" gradientTransform="matrix(26.47, 0, 0, -10.63, -2016.61, 1771.51)" xlink:href="#Degradado_sin_nombre"/><linearGradient id="Degradado_sin_nombre_10" x1="84.97" y1="151.45" x2="85.97" y2="151.45" gradientTransform="matrix(29.08, 0, 0, -17.2, -2264.59, 2731.85)" xlink:href="#Degradado_sin_nombre"/><linearGradient id="Degradado_sin_nombre_11" x1="83.25" y1="152.68" x2="84.14" y2="151.55" gradientTransform="matrix(18.45, 0, 0, -14.59, -1329.47, 2327.27)" xlink:href="#Degradado_sin_nombre_3"/><linearGradient id="Degradado_sin_nombre_12" x1="82.4" y1="151.91" x2="83.45" y2="150.95" gradientTransform="matrix(15.84, 0, 0, -17.2, -1081.49, 2722.57)" xlink:href="#Degradado_sin_nombre_3"/><linearGradient id="Degradado_sin_nombre_13" x1="80" y1="155.08" x2="80.44" y2="154.58" gradientTransform="matrix(10.63, 0, 0, -9.27, -606.58, 1558.11)" xlink:href="#Degradado_sin_nombre_3"/><linearGradient id="Degradado_sin_nombre_14" x1="84.97" y1="152.19" x2="85.97" y2="152.19" gradientTransform="matrix(29.08, 0, 0, -14.49, -2264.59, 2307.76)" xlink:href="#Degradado_sin_nombre"/><linearGradient id="Degradado_sin_nombre_15" x1="84.68" y1="151.17" x2="85.68" y2="151.17" gradientTransform="matrix(26.47, 0, 0, -18.55, -2016.61, 2917.42)" xlink:href="#Degradado_sin_nombre"/><linearGradient id="Degradado_sin_nombre_16" x1="87.53" y1="149.1" x2="87.96" y2="148.24" gradientTransform="matrix(116.41, 0, 0, -58.16, -10121.57, 8678.87)" xlink:href="#Degradado_sin_nombre"/><linearGradient id="Degradado_sin_nombre_17" x1="84.11" y1="154.46" x2="84.61" y2="153.45" gradientTransform="matrix(21.25, 0, 0, -10.53, -1673.96, 1635.59)" xlink:href="#Degradado_sin_nombre"/><linearGradient id="Degradado_sin_nombre_18" x1="84.17" y1="152.35" x2="83.71" y2="151.4" gradientTransform="matrix(18.55, 0, 0, -15.84, -1425.3, 2505.22)" gradientUnits="userSpaceOnUse"><stop offset="0" stop-color="#fdfeff" stop-opacity="0"/><stop offset="0.91" stop-color="#fdfeff" stop-opacity="0.91"/><stop offset="1" stop-color="#fdfeff"/></linearGradient><linearGradient id="Degradado_sin_nombre_19" x1="84.17" y1="152.32" x2="83.71" y2="151.38" gradientTransform="matrix(18.55, 0, 0, -15.94, -1390.91, 2502.32)" xlink:href="#Degradado_sin_nombre_18"/><linearGradient id="Degradado_sin_nombre_20" x1="86.69" y1="148.5" x2="87.9" y2="147.73" gradientTransform="matrix(74, 0, 0, -116.41, -6389.57, 17337.18)" xlink:href="#Degradado_sin_nombre_3"/><linearGradient id="Degradado_sin_nombre_22" x1="78.85" y1="149.23" x2="81.59" y2="148.62" gradientTransform="matrix(10.63, 0, 0, -47.63, -746.75, 7235.52)" xlink:href="#Degradado_sin_nombre_3"/><linearGradient id="Degradado_sin_nombre_23" x1="87.08" y1="148.74" x2="87.54" y2="148.24" gradientTransform="matrix(74.1, 0, 0, -68.69, -6321.37, 10273.03)" xlink:href="#Degradado_sin_nombre_2"/><linearGradient id="Degradado_sin_nombre_24" x1="87.47" y1="149.18" x2="87.87" y2="148.38" gradientTransform="matrix(105.88, 0, 0, -52.94, -9150.03, 7926.62)" xlink:href="#Degradado_sin_nombre"/><linearGradient id="Degradado_sin_nombre_25" x1="85.52" y1="152.21" x2="85.94" y2="151.38" gradientTransform="matrix(31.78, 0, 0, -15.84, -2582.03, 2460.3)" xlink:href="#Degradado_sin_nombre"/><linearGradient id="Degradado_sin_nombre_26" x1="85.11" y1="149.35" x2="86.36" y2="148.51" gradientTransform="matrix(31.78, 0, 0, -47.53, -2629.66, 7163.06)" xlink:href="#Degradado_sin_nombre_3"/><linearGradient id="Degradado_sin_nombre_27" x1="87.22" y1="149.54" x2="87.49" y2="149.01" gradientTransform="matrix(76.8, 0, 0, -38.35, -6562.11, 5829.93)" xlink:href="#Degradado_sin_nombre"/><linearGradient id="Degradado_sin_nombre_28" x1="83.24" y1="151.93" x2="84.2" y2="150.9" gradientTransform="matrix(18.55, 0, 0, -17.2, -1468.96, 2803.24)" xlink:href="#Degradado_sin_nombre_3"/><linearGradient id="Degradado_sin_nombre_29" x1="82.53" y1="155.47" x2="83.32" y2="154.12" gradientTransform="matrix(15.84, 0, 0, -9.27, -1212.38, 1642.74)" xlink:href="#Degradado_sin_nombre_3"/><linearGradient id="Degradado_sin_nombre_30" x1="80" y1="155.08" x2="80.44" y2="154.58" gradientTransform="matrix(10.63, 0, 0, -9.27, -737.48, 1642.74)" xlink:href="#Degradado_sin_nombre_3"/><linearGradient id="Degradado_sin_nombre_31" x1="84.68" y1="153.96" x2="85.68" y2="153.96" gradientTransform="matrix(26.47, 0, 0, -10.53, -2147.51, 1823.39)" xlink:href="#Degradado_sin_nombre"/><linearGradient id="Degradado_sin_nombre_32" x1="84.97" y1="151.48" x2="85.97" y2="151.48" gradientTransform="matrix(29.08, 0, 0, -17.1, -2395.59, 2783.73)" xlink:href="#Degradado_sin_nombre"/><linearGradient id="Degradado_sin_nombre_33" x1="83.27" y1="152.72" x2="84.17" y2="151.58" gradientTransform="matrix(18.55, 0, 0, -14.49, -1468.96, 2379.15)" xlink:href="#Degradado_sin_nombre_3"/><linearGradient id="Degradado_sin_nombre_34" x1="82.4" y1="151.92" x2="83.45" y2="150.96" gradientTransform="matrix(15.84, 0, 0, -17.2, -1212.38, 2788.75)" xlink:href="#Degradado_sin_nombre_3"/><linearGradient id="Degradado_sin_nombre_35" x1="80" y1="155.08" x2="80.43" y2="154.58" gradientTransform="matrix(10.63, 0, 0, -9.27, -737.48, 1624.29)" xlink:href="#Degradado_sin_nombre_3"/><linearGradient id="Degradado_sin_nombre_36" x1="84.97" y1="152.16" x2="85.97" y2="152.16" gradientTransform="matrix(29.08, 0, 0, -14.59, -2395.59, 2388.13)" xlink:href="#Degradado_sin_nombre"/><linearGradient id="Degradado_sin_nombre_37" x1="84.68" y1="151.17" x2="85.68" y2="151.17" gradientTransform="matrix(26.47, 0, 0, -18.55, -2147.51, 2983.6)" xlink:href="#Degradado_sin_nombre"/><linearGradient id="Degradado_sin_nombre_38" x1="86.26" y1="148.93" x2="87.41" y2="148.05" gradientTransform="matrix(52.84, 0, 0, -68.78, -4539.71, 10387.51)" xlink:href="#Degradado_sin_nombre_3"/><linearGradient id="Degradado_sin_nombre_39" x1="69.82" y1="149.26" x2="74.06" y2="148.76" gradientTransform="matrix(5.31, 0, 0, -44.92, -304.31, 6879.92)" xlink:href="#Degradado_sin_nombre_3"/><linearGradient id="Degradado_sin_nombre_40" x1="86.63" y1="150.54" x2="87.34" y2="149.13" gradientTransform="matrix(58.16, 0, 0, -29.08, -5007.27, 4508.68)" xlink:href="#Degradado_sin_nombre"/><linearGradient id="Degradado_sin_nombre_41" x1="84.09" y1="154.4" x2="84.59" y2="153.4" gradientTransform="matrix(21.16, 0, 0, -10.63, -1728.92, 1681.57)" xlink:href="#Degradado_sin_nombre"/></defs><title>phonegap</title><path class="cls-1" d="M109.65,213.4a.87.87,0,0,1-.48-.1l-15.84-4a.73.73,0,0,1-.39-.19L82.5,203.93v1.93a1.82,1.82,0,0,1-1.06,1.74l-5.31,2.61a2.05,2.05,0,0,1-1.74,0L21.45,183.74A1.82,1.82,0,0,1,20.38,182V167.61L2.9,158.91a1.82,1.82,0,0,1-1.06-1.74V136a1.82,1.82,0,0,1,1.06-1.74l7.92-4a2.82,2.82,0,0,1,.87-.19,2.82,2.82,0,0,1,.87.19l12.08,6.09,2-1.06a2.82,2.82,0,0,1,.87-.19,2.82,2.82,0,0,1,.87.19l1,.48,12.37-15.75L40,119.21a1.82,1.82,0,0,1-1.06-1.74V87.72l-5.51-2.8a1.82,1.82,0,0,1-1.06-1.74V40.86a1.82,1.82,0,0,1,1.06-1.74l74.1-37a2.05,2.05,0,0,1,1.74,0L150.7,22.9l1.74-.87a2.05,2.05,0,0,1,1.74,0L186,37.87A1.82,1.82,0,0,1,187,39.61V64.82l41.25,20.67a1.82,1.82,0,0,1,1.06,1.74V99.31l6.86,3.48c.1.1.29.19.39.29l15.84,13.23a1.74,1.74,0,0,1,.68,1.45v4a1.82,1.82,0,0,1-1.06,1.74l-10.63,5.31a2.82,2.82,0,0,1-.87.19,1.86,1.86,0,0,1-1.16-.39l-10.14-7.63v3.86l6.86,4.44,15.65,5.22a2,2,0,0,1,1.35,1.84v4A1.82,1.82,0,0,1,252,142l-10.63,5.31a2.82,2.82,0,0,1-.87.19.87.87,0,0,1-.48-.1l-15.84-4a.73.73,0,0,1-.39-.19l-15.26-7.63-.77.39c-.19.19-.29.39-.58.48a2,2,0,0,1-1.06.29,2.82,2.82,0,0,1-.87-.19l-18.35-9.18v2.13a1.82,1.82,0,0,1-1.06,1.74l-74.1,37a2.05,2.05,0,0,1-1.74,0L99.41,163a1.82,1.82,0,0,1-1.06-1.74v-2.13a1.64,1.64,0,0,1-.68.1,2.82,2.82,0,0,1-.87-.19L86.17,153.7A1.82,1.82,0,0,1,85.11,152v-1.45l-4.25-2.13a1.82,1.82,0,0,1-1.06-1.74v-7.92l-23.67-11.5L48,137.37l38.54,19.22a1.82,1.82,0,0,1,1.06,1.74v1.74l17.49,8.69c.1.1.29.19.39.29l15.84,13.23a1.74,1.74,0,0,1,.68,1.45v4a1.82,1.82,0,0,1-1.06,1.74l-10.63,5.31a2.82,2.82,0,0,1-.87.19,1.86,1.86,0,0,1-1.16-.39L92.64,182.87,87.52,181v3l17.39,11.21,15.65,5.22a2,2,0,0,1,1.35,1.84v4a1.82,1.82,0,0,1-1.06,1.74l-10.63,5.31c0,.1-.29.1-.58.1Z"/><path class="cls-2" d="M108.29,3.86l7.92,4,2.61,1.35,10.63,5.31,21.16,10.63,2.61-1.35,31.88,15.84V66.08l42.31,21.16v13.23l7.92,4,15.84,13.23v4l-10.63,5.31-13.14-10v8.79l7.92,5.12,15.84,5.31v4l-10.63,5.31-15.84-4-16.13-8-2.42,1.16v.29L185,124.23v5.31l-74.1,37-10.63-5.31v-5.31l-2.61-1.35v2.61L87,151.86v-2.61l-5.31-2.61v-9.18L55.55,124.72,45,138l40.67,20.29v2.9l18.55,9.27,15.84,13.23v4l-10.63,5.31L93.61,181l-7.92-2.8V185l18.55,11.88,15.84,5.31v4l-10.63,5.31-15.84-4-13-6.57v5l-5.31,2.61L22.32,182.1V166.45L3.86,157.27V136.11l7.92-4,12.94,6.47,2.9-1.45,2.32,1.16L44.82,119.5l-4-1.93v-31l-6.57-3.28V40.86l74-37Zm0-3.86a3.79,3.79,0,0,0-1.74.39l-74,37.1A3.85,3.85,0,0,0,30.43,41V83.27a4,4,0,0,0,2.13,3.48L37,89v28.69a3.77,3.77,0,0,0,1.84,3.28l-10,12.66a4.89,4.89,0,0,0-1.26-.19,3.79,3.79,0,0,0-1.74.39l-1.16.58-11.21-5.7a3.79,3.79,0,0,0-1.74-.39,3.79,3.79,0,0,0-1.74.39l-7.92,4A4,4,0,0,0,0,136.11v21.16a4,4,0,0,0,2.13,3.48L18.55,169v13.23a4,4,0,0,0,2.13,3.48l52.94,26.47a4.11,4.11,0,0,0,3.48,0l5.31-2.61a3.82,3.82,0,0,0,1.93-2.32l7.82,3.86c.29.1.48.19.77.29l15.84,4a3,3,0,0,0,1,.1,3.79,3.79,0,0,0,1.74-.39l10.63-5.31a3.85,3.85,0,0,0,2.13-3.48v-4a3.86,3.86,0,0,0-2.61-3.67l-8.6-2.9,9.08-4.54a3.85,3.85,0,0,0,2.13-3.48v-4a4,4,0,0,0-1.35-3l-12.56-10.43a2.4,2.4,0,0,0,.77.1,3.79,3.79,0,0,0,1.74-.39l74.1-37a3.78,3.78,0,0,0,2-2.51l15.65,7.82a4,4,0,0,0,3.77-.19,1.7,1.7,0,0,0,.48-.39l14.3,7.15c.29.1.48.19.77.29l15.84,4a3,3,0,0,0,1,.1,3.79,3.79,0,0,0,1.74-.39l10.63-5.31a3.85,3.85,0,0,0,2.13-3.48v-4a3.86,3.86,0,0,0-2.61-3.67l-8.6-2.9L253.1,125a3.85,3.85,0,0,0,2.13-3.48v-4a4,4,0,0,0-1.35-3l-16.13-13.14A2.1,2.1,0,0,0,237,101l-5.8-2.9V87.14A4,4,0,0,0,229,83.66L188.86,63.57v-24a4,4,0,0,0-2.13-3.48L155,20.29a4.11,4.11,0,0,0-3.48,0l-.87.48L131.28,11,120.66,5.7,118,4.35l-7.92-4A3.92,3.92,0,0,0,108.29,0ZM51.2,136.69l5.6-7.05L78,140v6.76a4,4,0,0,0,2.13,3.48l3.19,1.55v.29a1.88,1.88,0,0,0,.1.77L51.2,136.69Zm38.54,22.12v-.48a1.88,1.88,0,0,0-.1-.77L96,160.75c.19.1.29.19.48.19v.29a3.47,3.47,0,0,0,.19,1.06l-7-3.48Z"/><path class="cls-3" d="M185.09,129.55l-74.1,37V124.23l74.1-37.1Z"/><path class="cls-4" d="M169.15,63.37v42.31l52.94,26.47V89.84Z"/><path class="cls-5" d="M222.09,89.84v42.31l5.31-2.61V87.14Z"/><path class="cls-6" d="M169.15,63.37l5.31-2.61,52.94,26.37-5.31,2.7Z"/><path class="cls-7" d="M174.47,71.1l-10.63,5.22,42.41,21.16,10.53-5.22Z"/><path class="cls-7" d="M148,68.69l-7.92,4,31.78,15.84,7.92-4Z"/><path class="cls-7" d="M140.08,72.65V93.8l31.78,15.84V88.49Z"/><path class="cls-7" d="M163.84,76.61v37l42.41,21.16v-37Z"/><path class="cls-7" d="M216.78,92.26l-10.53,5.22v37.1l10.53-5.31Z"/><path class="cls-8" d="M206.25,124.23v7.92l18.45,9.27v-5.31Z"/><path class="cls-9" d="M224.7,136.11v5.31l15.84,4v-4Z"/><path class="cls-10" d="M240.54,141.43v4l10.63-5.31v-4Z"/><path class="cls-11" d="M235.33,130.8l-10.63,5.31,15.84,5.31,10.63-5.31Z"/><path class="cls-12" d="M216.78,118.92l-10.53,5.31,18.45,11.88,10.63-5.31Z"/><path class="cls-13" d="M206.25,100.37v7.92L224.7,115v-5.31Z"/><path class="cls-14" d="M224.7,109.65V115l15.84,11.88v-4Z"/><path class="cls-15" d="M240.54,122.88v4l10.63-5.31v-4Z"/><path class="cls-16" d="M216.78,95.15l-10.53,5.22,18.45,9.27,10.63-5.31Z"/><path class="cls-17" d="M235.33,104.33l-10.63,5.31,15.84,13.23,10.63-5.31Z"/><path class="cls-7" d="M40.86,42.22v75.35l49,23.86V66Z"/><path class="cls-7" d="M71.29,59.41V97.76l10.63,6.57v42.41l26.37,13.14V78Z"/><path class="cls-7" d="M116.31,7.82l-72.74,37L107,76.61l72.74-37Z"/><path class="cls-18" d="M34.29,40.86l74-37L150.7,25,76.61,62Z"/><path class="cls-19" d="M108.29,14.49l10.63-5.31,10.63,5.31-10.63,5.22Z"/><path class="cls-7" d="M108.29,83.18l74.1-37v79.31l-74.1,37.1Z"/><path class="cls-7" d="M55.45,40.86,66,46.18l52.94-26.47-10.63-5.22Z"/><path class="cls-7" d="M108.29,25l8-4,2.61-1.35-10.63-5.22Z"/><path class="cls-20" d="M103.08,27.63l2.61-1.26,5.31-2.7-7.92-4Z"/><path class="cls-7" d="M103.08,19.71l7.92,4,2.61-1.26-7.92-4Z"/><path class="cls-20" d="M97.76,30.33,100.37,29l5.31-2.61-7.92-4Z"/><path class="cls-7" d="M97.76,22.41l7.92,4L108.29,25l-7.92-4Z"/><path class="cls-20" d="M92.45,32.94l2.7-1.35L100.37,29l-7.92-4Z"/><path class="cls-7" d="M92.45,25l7.92,4,2.7-1.35-7.92-4Z"/><path class="cls-20" d="M87.14,35.65l2.7-1.35,5.31-2.7-8-4Z"/><path class="cls-7" d="M87.14,27.63l8,4,2.61-1.26-7.92-4Z"/><path class="cls-20" d="M81.92,38.26l2.61-1.35,5.31-2.61-7.92-4Z"/><path class="cls-7" d="M81.92,30.33l7.92,4,2.61-1.35-7.92-4Z"/><path class="cls-20" d="M76.61,40.86l2.61-1.26,5.31-2.7-7.92-4Z"/><path class="cls-7" d="M76.61,32.94l7.92,4,2.61-1.26-7.92-4.06Z"/><path class="cls-20" d="M71.29,43.57,74,42.22l5.22-2.61-7.92-4Z"/><path class="cls-7" d="M71.29,35.65l7.92,4,2.7-1.35-7.92-4Z"/><path class="cls-20" d="M66,46.18l2.7-1.35L74,42.22l-8-4Z"/><path class="cls-7" d="M66,38.26l8,4,2.61-1.35-7.92-4Z"/><path class="cls-20" d="M60.76,48.78l2.61-1.26,5.31-2.7-7.92-4Z"/><path class="cls-7" d="M60.76,40.86l7.92,4,2.61-1.26-7.92-4Z"/><path class="cls-21" d="M118.92,101.72v15.84l18.55-9.27V92.45Z"/><path class="cls-22" d="M132.15,105.68V95.15l-13.23,6.57v10.63Z"/><path class="cls-23" d="M137.47,108.29V92.45l-13.23,6.67-5.31,2.61"/><path class="cls-24" d="M118.92,101.72v15.84l18.55-9.27V92.45Z"/><path class="cls-21" d="M153.31,84.53v15.84l18.55-9.18V75.25Z"/><path class="cls-22" d="M166.54,88.49V78l-13.23,6.57V95.15Z"/><path class="cls-25" d="M171.86,91.19V75.25l-13.23,6.67-5.31,2.61"/><path class="cls-24" d="M153.31,84.53v15.84l18.55-9.18V75.25Z"/><path class="cls-26" d="M76.61,93.8V62L34.29,40.86V83.18l52.84,26.47V152l10.63,5.31V115l10.53,5.31V109.65Z"/><path class="cls-3" d="M185.09,129.55l-74.1,37V124.23l74.1-37.1Z"/><path class="cls-27" d="M100.37,118.92v42.31L111,166.54V124.23Z"/><path class="cls-28" d="M185.09,71.29l-74.1,37V76.61l74.1-37Z"/><path class="cls-29" d="M79.22,60.76l74.1-37.1,31.78,15.94-74.1,37Z"/><path class="cls-30" d="M126.84,58.06,148,47.53l10.63,5.31L137.47,63.37Z"/><path class="cls-31" d="M79.22,60.76V92.45L111,108.29V76.61Z"/><path class="cls-32" d="M111,124.23l74.1-37.1-2.7-1.26-74.1,37Z"/><path class="cls-20" d="M54.1,103.08v13.23l10.63,5.22V108.29Z"/><path class="cls-7" d="M22.41,148v9.27l5.22,2.61V150.7Z"/><path class="cls-7" d="M56.8,104.33,22.41,148l5.22,2.7L62,107Z"/><path class="cls-7" d="M27.63,150.7v9.18l37.1-46.27v-5.31L62,107Z"/><path class="cls-7" d="M43.57,137.18l-10.63,5.31,42.31,21.16,10.63-5.31Z"/><path class="cls-7" d="M11.79,132.15l-7.92,4,37,18.55,7.92-4Z"/><path class="cls-7" d="M3.86,136.11v21.16l37,18.55V154.66Z"/><path class="cls-7" d="M32.94,142.68v37.1l42.31,21.16v-37.1Z"/><path class="cls-7" d="M85.88,158.33l-10.63,5.31v37l10.63-5.31Z"/><path class="cls-33" d="M75.25,190.31v7.92L93.8,207.5v-5.31Z"/><path class="cls-34" d="M93.8,202.19v5.31l15.84,4v-4Z"/><path class="cls-35" d="M109.65,207.5v4l10.63-5.22v-4.06Z"/><path class="cls-36" d="M104.33,197,93.8,202.19l15.84,5.31,10.63-5.31Z"/><path class="cls-37" d="M85.88,185.09l-10.63,5.22L93.8,202.19,104.33,197Z"/><path class="cls-38" d="M75.25,166.54v7.92L93.8,181v-5.22Z"/><path class="cls-39" d="M93.8,175.82V181l15.84,12v-4Z"/><path class="cls-40" d="M109.65,189.05v4l10.63-5.31v-4Z"/><path class="cls-41" d="M85.88,161.23l-10.63,5.31,18.55,9.27,10.53-5.31Z"/><path class="cls-42" d="M104.33,170.51,93.8,175.82l15.84,13.23,10.63-5.31Z"/><path class="cls-43" d="M22.41,139.79v42.41l52.84,26.37V166.26Z"/><path class="cls-44" d="M75.25,166.26v42.31L80.57,206V163.65Z"/><path class="cls-45" d="M22.41,139.79l5.22-2.61,52.94,26.47-5.31,2.61Z"/><path class="cls-46" d="M44.82,46.18l10.63-5.31L66,46.18,55.45,51.49Z"/></svg>